<?xml version="1.0" encoding="utf-8"?>
<!-- Generator: Adobe Illustrator 21.0.0, SVG Export Plug-In . SVG Version: 6.00 Build 0)  -->
<svg version="1.1" id="Layer_1" xmlns="http://www.w3.org/2000/svg" xmlns:xlink="http://www.w3.org/1999/xlink" x="0px" y="0px"
	 viewBox="0 0 841.9 124" style="enable-background:new 0 0 841.9 124;" xml:space="preserve">
<style type="text/css">
	.st0{fill:#FFFFFF;}
	.st1{fill:#FF8000;}
</style>
<g id="new_1_">
	<g>
		<path class="st0" d="M741.3,41.3c-4.9-5-11-7.5-18.4-7.5c-9.3,0-16,3.2-20.3,9.5c-2.9-6.3-11.3-7.5-15.3-7.6H685v68.1h17.6V67.1
			c0-5.6,1.4-9.9,4.1-12.7c2.7-2.8,6.4-4.2,10.9-4.2c4.1,0,7.4,1.2,9.8,3.6c2.5,2.4,3.7,5.9,3.7,10.4v39.6h17.6V62
			C748.6,53.2,746.1,46.3,741.3,41.3z"/>
		<path class="st1" d="M343.6,105.8c-10.3,0-18.8-3.5-25.7-10.4c-6.9-6.9-10.3-15.4-10.3-25.6s3.4-18.7,10.3-25.6
			c6.9-6.9,15.4-10.4,25.7-10.4c6.6,0,12.7,1.6,18.1,4.8c5.5,3.2,9.6,7.4,12.4,12.8L359,60.3c-1.4-2.8-3.4-5-6.2-6.7
			c-2.8-1.6-5.9-2.5-9.3-2.5c-5.3,0-9.6,1.8-13.1,5.2c-3.4,3.5-5.2,8-5.2,13.4s1.7,9.8,5.2,13.3s7.8,5.2,13.1,5.2
			c3.5,0,6.7-0.8,9.5-2.4c2.8-1.6,4.8-3.8,6.2-6.6l15.3,8.7c-3,5.4-7.2,9.6-12.7,12.9C356.3,104.2,350.3,105.8,343.6,105.8z"/>
		<path class="st0" d="M784.7,77c2.4,8.5,8.8,12.8,19.2,12.8c6.7,0,11.8-2.3,15.3-6.8l14.2,8.2c-6.7,9.7-16.6,14.6-29.7,14.6
			c-11.3,0-20.3-3.4-27.1-10.2s-10.2-15.4-10.2-25.7s3.4-18.8,10.1-25.7c6.7-6.9,15.3-10.3,25.9-10.3c10,0,18.2,3.5,24.7,10.4
			s9.7,15.4,9.7,25.6c0,2.3-0.2,4.7-0.7,7.2h-51.4V77z M784.4,63.4h34.7c-1-4.6-3.1-8.1-6.2-10.4c-3.1-2.3-6.7-3.4-10.7-3.4
			c-4.7,0-8.6,1.2-11.7,3.6C787.5,55.7,785.4,59.1,784.4,63.4z"/>
		<path class="st1" d="M425.1,52.7V35.8h-15.4V15.7c-14.6-0.9-17.5,11.4-17.5,11.4v8.7v16.9v17.2v11.2c0,9.4,2.5,15.8,7.4,19.5
			c5,3.6,13.5,4.8,25.5,3.4V88.1c-3.4,0.2-6.2,0.2-8.4,0.1c-2.3-0.1-4-0.7-5.2-1.8s-1.8-2.8-1.8-5.2V52.9h15.4V52.7z"/>
		<g>
			<path class="st1" d="M658.4,27.6c-2.9,0-5.4-1.1-7.6-3.2c-2.1-2.1-3.2-4.7-3.2-7.6s1.1-5.4,3.2-7.6c2.1-2.2,4.7-3.3,7.6-3.3
				c3,0,5.6,1.1,7.7,3.3c2.1,2.2,3.2,4.7,3.2,7.6s-1.1,5.4-3.2,7.6C663.9,26.5,661.4,27.6,658.4,27.6z"/>
			<rect x="649.7" y="35.8" class="st0" width="17.6" height="68.1"/>
		</g>
		<path class="st0" d="M614.3,20.2v83.7h17.6v-95C617.3,8,614.3,20.2,614.3,20.2z"/>
		<path class="st0" d="M504.4,95.4c-7,6.9-15.5,10.4-25.6,10.4s-18.6-3.5-25.5-10.4s-10.4-15.5-10.4-25.5s3.5-18.6,10.4-25.5
			S468.8,34,478.8,34c10.1,0,18.6,3.5,25.6,10.4s10.5,15.5,10.5,25.5S511.4,88.4,504.4,95.4z M465.7,83.3c3.5,3.5,7.9,5.3,13.1,5.3
			c5.3,0,9.7-1.8,13.2-5.3s5.3-8,5.3-13.5s-1.8-9.9-5.3-13.5c-3.5-3.5-7.9-5.3-13.2-5.3c-5.3,0-9.6,1.8-13.1,5.3s-5.2,8-5.2,13.5
			S462.2,79.8,465.7,83.3z"/>
		<path class="st0" d="M589.1,41.3c-4.9-5-11-7.5-18.4-7.5c-9.3,0-16,3.2-20.3,9.5c-2.9-6.3-11.3-7.5-15.3-7.6h-2.2v68.1h17.6V67.1
			c0-5.6,1.4-9.9,4.1-12.7c2.7-2.8,6.4-4.2,10.9-4.2c4.1,0,7.4,1.2,9.8,3.6c2.5,2.4,3.7,5.9,3.7,10.4v39.6h17.6V62
			C596.4,53.2,594,46.3,589.1,41.3z"/>
		<path class="st1" d="M272.4,43.7L272.4,43.7L272.4,43.7c-5.3-6.5-12.7-9.8-22.2-9.8c-9.1,0-16.9,3.5-23.4,10.4s-9.7,15.5-9.7,25.5
			c0,10.1,3.2,18.6,9.7,25.5s14.3,10.4,23.4,10.4c9.5,0,16.9-3.3,22.2-9.9v8H290V36C289.8,36,276.2,35.2,272.4,43.7z M267,83.6
			c-3.6,3.6-8.1,5.4-13.6,5.4s-9.9-1.8-13.5-5.4c-3.5-3.6-5.3-8.2-5.3-13.8c0-5.6,1.8-10.2,5.3-13.8c3.5-3.6,8-5.4,13.5-5.4
			c5.4,0,10,1.8,13.6,5.4s5.4,8.2,5.4,13.8S270.6,80.1,267,83.6z"/>
		<path class="st1" d="M41.1,33.9c-10.5,0-19.1,3.4-25.8,10.2C8.6,51,5.2,59.5,5.2,69.8c0,10.4,3.4,18.9,10.2,25.7
			s15.8,10.2,27.1,10.2c13.1,0,23-4.9,29.7-14.6L58,83c-3.5,4.5-8.5,6.8-15.3,6.8c-10.4,0-16.8-4.3-19.2-12.8h51.3
			c0.5-2.5,0.7-4.9,0.7-7.2c0-10.2-3.2-18.7-9.7-25.6C59.4,37.3,51.1,33.9,41.1,33.9z M23.3,63.4c1-4.4,3-7.7,6.1-10.1
			s7-3.6,11.7-3.6c4,0,7.6,1.1,10.7,3.4c3.1,2.3,5.2,5.7,6.2,10.4H23.3V63.4z"/>
		<g>
			<g>
				<path class="st1" d="M119.9,67.1c0-0.2,0.1-0.3,0.1-0.5c0-0.5-0.2-0.9-0.6-1.2l-19.2-15.3c-0.5-0.4-1.1-0.4-1.6-0.2
					c-0.3,0.1-0.6,0.4-0.7,0.7c0,0.1-0.1,0.2-0.1,0.3c-1.3,3.7-2.1,7.3-2.5,10.8C95.1,63.4,95,65,95,66.8c0,1.6,0.1,3.3,0.3,5
					c0.2,2.2,0.7,4.4,1.4,7.1l0.1,0.5c0.3,1,0.6,2.1,0.9,3.1c0,0,0,0,0,0.1c0.2,0.7,0.8,1.1,1.5,1.1c0.1,0,0.1,0,0.2,0
					c0.4,0,0.7-0.2,0.9-0.5l19-15.3C119.7,67.7,119.8,67.4,119.9,67.1z"/>
				<path class="st0" d="M182.5,66.5c0,0.1,0,0.2,0,0.3c0,0.3,0.1,0.6,0.4,0.8l13,10.3c0.3,0.2,0.7,0.3,1.1,0.1
					c0.2-0.1,0.4-0.3,0.5-0.5c0-0.1,0.1-0.1,0.1-0.2c0.9-2.5,1.4-4.9,1.7-7.3c0.1-1.1,0.2-2.2,0.2-3.4c0-1.1-0.1-2.2-0.2-3.4
					c-0.2-1.5-0.5-3-1-4.8l-0.1-0.3c-0.2-0.7-0.4-1.4-0.6-2.1l0,0c-0.1-0.4-0.5-0.7-1-0.7h-0.1c-0.2,0-0.5,0.1-0.6,0.3l-12.8,10.3
					C182.7,66.1,182.6,66.3,182.5,66.5z"/>
			</g>
			<path class="st1" d="M125.1,59.9c0.3,0.4,0.8,0.6,1.3,0.6l0,0c0.5,0,1-0.2,1.3-0.6L161,19c0.3-0.4,0.5-1,0.3-1.5
				s-0.6-0.9-1.1-1.1c-4.2-1.2-8.3-1.8-12.4-1.9c-0.5-0.1-1,0.2-1.3,0.6l-20.1,24.6l-10.5-12.8c-0.3-0.3-0.7-0.6-1.2-0.6
				s-0.9,0.1-1.2,0.4c-1.4,1.2-2.7,2.5-3.9,3.8c-1.2,1.3-2.4,2.7-3.5,4.2c-0.4,0.6-0.4,1.4,0.1,2L125.1,59.9z"/>
			<path class="st1" d="M125.1,73.5c0.3-0.4,0.8-0.6,1.3-0.6l0,0c0.5,0,1,0.2,1.3,0.6l33.3,40.9c0.3,0.4,0.5,1,0.3,1.5
				s-0.6,0.9-1.1,1.1c-4.2,1.2-8.3,1.8-12.4,1.9c-0.5,0.1-1-0.2-1.3-0.6l-20.1-24.6l-10.5,12.8c-0.3,0.3-0.7,0.6-1.2,0.6
				s-0.9-0.1-1.2-0.4c-1.4-1.2-2.7-2.5-3.9-3.8c-1.2-1.3-2.4-2.7-3.5-4.2c-0.4-0.6-0.4-1.4,0.1-2L125.1,73.5z"/>
			<path class="st1" d="M190.2,38.6c0.7-0.6,0.8-1.6,0.3-2.3c-2.3-2.9-4.9-5.6-7.7-7.9c-0.6-0.5-1.5-0.5-2.1,0l-46.2,37.1
				c-0.4,0.3-0.6,0.8-0.6,1.3s0.2,1,0.6,1.3l37.1,29.6l0,0l1.5,1.2c0.9,0.7,1.7,2.3,1.7,3.4v7.7c0,1.2,1,2.1,2.1,2.1h10.4
				c1.2,0,2.1-1,2.1-2.1l0.2-13c0-1.2-0.7-2.7-1.6-3.5l0,0l0,0l-2.1-1.8l-12.1-9.8l0,0l-18.7-15.2L190.2,38.6z"/>
		</g>
	</g>
</g>
</svg>
